<svg id="93b69481-d4d2-47c8-bacc-30ca521cef34" data-name="livetype" xmlns="http://www.w3.org/2000/svg" xmlns:xlink="http://www.w3.org/1999/xlink" width="123.96" height="38.09" viewBox="0 0 123.96 38.09"><defs><linearGradient id="152cf71f-680a-49e1-8818-47e82b9c505f" x1="-293.86" y1="1526.03" x2="-314.6" y2="1546.77" gradientTransform="matrix(0.1, -0.99, 0.99, 0.1, -1619.53, -337.82)" gradientUnits="userSpaceOnUse"><stop offset="0" stop-color="#ff3a44"/><stop offset="1" stop-color="#c31162"/></linearGradient><linearGradient id="83302191-bd7a-43ed-98da-23f28ab476cd" x1="-310.34" y1="1505.84" x2="-301.08" y2="1515.1" gradientTransform="translate(1411.24 263.49) rotate(84.79)" gradientUnits="userSpaceOnUse"><stop offset="0" stop-color="#32a071"/><stop offset="0.07" stop-color="#2da771"/><stop offset="0.48" stop-color="#15cf74"/><stop offset="0.8" stop-color="#06e775"/><stop offset="1" stop-color="#00f076"/></linearGradient><linearGradient id="297fe6f4-d332-4c83-a926-7d3e4d4f4f36" x1="-297.36" y1="1523.94" x2="-318.46" y2="1523.94" gradientTransform="translate(220.11 -1404.22) rotate(1.83)" gradientUnits="userSpaceOnUse"><stop offset="0" stop-color="#ffe000"/><stop offset="0.41" stop-color="#ffbd00"/><stop offset="0.78" stop-color="orange"/><stop offset="1" stop-color="#ff9c00"/></linearGradient></defs><title>logo</title><path d="M-139.4,90.41H-24.64A4.67,4.67,0,0,1-20,95.15v28.59a4.67,4.67,0,0,1-4.59,4.76H-139.37a4.67,4.67,0,0,1-4.59-4.76V95.17A4.67,4.67,0,0,1-139.4,90.41Z" transform="translate(143.97 -90.41)"/><path d="M-129.22,108.06l-4.35,3.25,10.72,12a1.33,1.33,0,0,0,.24-1.79l-6.59-13.48" transform="translate(143.97 -90.41)" fill="url(#152cf71f-680a-49e1-8818-47e82b9c505f)"/><path d="M-128.92,110.21l6.69-13.4a1.33,1.33,0,0,0-.22-1.8l-10.8,11.89Z" transform="translate(143.97 -90.41)" fill="url(#83302191-bd7a-43ed-98da-23f28ab476cd)"/><path d="M-135.29,120.85a2,2,0,0,1-.36-1.34v0.14a2,2,0,0,0,.36,1.34l0.06-.07Z" transform="translate(143.97 -90.41)" opacity="0.12" style="isolation:isolate"/><path d="M-116.15,111l-4.44,2.55,0.1,0.09,4.34-2.5a1.67,1.67,0,0,0,.89-1.34h0A1.76,1.76,0,0,1-116.15,111Z" transform="translate(143.97 -90.41)" opacity="0.12" style="isolation:isolate"/><path d="M-99.44,118.84a7.5,7.5,0,0,1-3.12.56c-3.33,0-5.82-2.1-5.82-6a5.86,5.86,0,0,1,6.17-6.18,6.76,6.76,0,0,1,2.8.51L-99.79,109a5.41,5.41,0,0,0-2.36-.49c-2.77,0-4.61,1.77-4.61,4.85,0,2.89,1.66,4.73,4.52,4.73a6.13,6.13,0,0,0,2.5-.49Z" transform="translate(143.97 -90.41)" fill="#fff"/><path d="M-94.31,119.42a4,4,0,0,1-4.06-4.36,4.15,4.15,0,0,1,4.2-4.5,4,4,0,0,1,4.08,4.34,4.15,4.15,0,0,1-4.2,4.52h0Zm0.07-1.16c1.47,0,2.57-1.38,2.57-3.31,0-1.44-.72-3.24-2.54-3.24s-2.59,1.68-2.59,3.29c0,1.86,1.05,3.26,2.54,3.26h0Z" transform="translate(143.97 -90.41)" fill="#fff"/><path d="M-88.14,113c0-.89,0-1.59-0.07-2.29h1.35l0.07,1.37h0.05a2.93,2.93,0,0,1,2.68-1.56,2.5,2.5,0,0,1,2.38,1.7h0a3.34,3.34,0,0,1,1-1.1,2.84,2.84,0,0,1,1.86-.6c1.14,0,2.8.74,2.8,3.68v5h-1.51v-4.8c0-1.65-.61-2.61-1.84-2.61a2,2,0,0,0-1.84,1.38,2.74,2.74,0,0,0-.12.77v5.25h-1.51v-5.1c0-1.35-.6-2.31-1.77-2.31a2.13,2.13,0,0,0-1.91,1.54,2.13,2.13,0,0,0-.12.75v5.12h-1.51V113Z" transform="translate(143.97 -90.41)" fill="#fff"/><path d="M-73.54,113.51c0-1.09,0-2-.07-2.77h1.38l0.09,1.45h0a3.27,3.27,0,0,1,3-1.65c2.07,0,3.61,1.73,3.61,4.31,0,3-1.87,4.55-3.85,4.55A3,3,0,0,1-72,118.08h0v4.61h-1.54v-9.18Zm1.54,2.26a2.5,2.5,0,0,0,.07.63,2.36,2.36,0,0,0,2.29,1.8c1.63,0,2.58-1.33,2.58-3.28,0-1.7-.88-3.15-2.5-3.15a2.46,2.46,0,0,0-2.35,1.91,3.67,3.67,0,0,0-.09.61v1.47Z" transform="translate(143.97 -90.41)" fill="#fff"/><path d="M-57.6,117.19a14.25,14.25,0,0,0,.12,2h-1.38L-59,118.15h-0.05a3.13,3.13,0,0,1-2.59,1.26A2.41,2.41,0,0,1-64.24,117c0-2,1.82-3.17,5.1-3.15v-0.17a1.74,1.74,0,0,0-1.93-2,4.08,4.08,0,0,0-2.22.63l-0.35-1a5.49,5.49,0,0,1,2.8-.74c2.61,0,3.24,1.77,3.24,3.47v3.17Zm-1.51-2.29c-1.68,0-3.59.26-3.59,1.91a1.35,1.35,0,0,0,1.44,1.47,2.14,2.14,0,0,0,2.08-1.42,1.57,1.57,0,0,0,.07-0.49V114.9Z" transform="translate(143.97 -90.41)" fill="#fff"/><path d="M-55.13,113c0-.89,0-1.59-0.07-2.29h1.37l0.09,1.38h0a3.14,3.14,0,0,1,2.8-1.58c1.17,0,3,.7,3,3.61v5.06h-1.54v-4.89c0-1.37-.51-2.52-2-2.52a2.22,2.22,0,0,0-2.07,1.58,2.3,2.3,0,0,0-.1.72v5.12h-1.54V113Z" transform="translate(143.97 -90.41)" fill="#fff"/><path d="M-45.08,110.74l1.84,5c0.21,0.56.42,1.23,0.56,1.73h0c0.16-.51.33-1.16,0.54-1.77l1.68-5h1.63l-2.31,6c-1.1,2.91-1.86,4.38-2.91,5.31a4.38,4.38,0,0,1-1.89,1l-0.39-1.28a4.1,4.1,0,0,0,1.35-.75,4.88,4.88,0,0,0,1.3-1.72,1.11,1.11,0,0,0,.12-0.37,1.07,1.07,0,0,0-.12-0.4l-3.12-7.81h1.68Z" transform="translate(143.97 -90.41)" fill="#fff"/><path d="M-131.85,113.33l-3.47-4V109l3.72-3.81,0.09,0.06,4.17,2.8a1.49,1.49,0,0,1,.74,2,1.49,1.49,0,0,1-.83.78l-4.34,2.5Z" transform="translate(143.97 -90.41)" fill="url(#297fe6f4-d332-4c83-a926-7d3e4d4f4f36)"/><path d="M-108.41,96.83h1.13v5.24h2.54V103h-3.67V96.83Z" transform="translate(143.97 -90.41)" fill="#fff"/><path d="M-98.76,99.86a2.92,2.92,0,0,1-3,3.25,2.86,2.86,0,0,1-2.84-3.15,3,3,0,0,1,2.93-3.24A2.86,2.86,0,0,1-98.76,99.86Zm-4.61.09c0,1.26.63,2.26,1.71,2.26s1.71-1,1.71-2.31-0.58-2.27-1.71-2.27S-103.37,98.67-103.37,99.95Z" transform="translate(143.97 -90.41)" fill="#fff"/><path d="M-92.84,102.73a6.13,6.13,0,0,1-2,.35,3.33,3.33,0,0,1-2.42-.83,3.06,3.06,0,0,1-.86-2.27,3.14,3.14,0,0,1,3.44-3.21,4.12,4.12,0,0,1,1.64.29l-0.25.91a3.33,3.33,0,0,0-1.4-.27,2.07,2.07,0,0,0-2.25,2.22,2,2,0,0,0,2.15,2.24,2.16,2.16,0,0,0,.85-0.13v-1.54H-95V99.6h2.18v3.13Z" transform="translate(143.97 -90.41)" fill="#fff"/><path d="M-86.2,99.86a2.92,2.92,0,0,1-3,3.25A2.86,2.86,0,0,1-92,100a3,3,0,0,1,2.93-3.24A2.86,2.86,0,0,1-86.2,99.86Zm-4.61.09c0,1.26.63,2.26,1.71,2.26s1.71-1,1.71-2.31S-88,97.63-89.1,97.63-90.81,98.67-90.81,99.95Z" transform="translate(143.97 -90.41)" fill="#fff"/><path d="M-77.85,99.86a2.92,2.92,0,0,1-3,3.25A2.86,2.86,0,0,1-83.65,100a3,3,0,0,1,2.93-3.24A2.86,2.86,0,0,1-77.85,99.86Zm-4.61.09c0,1.26.63,2.26,1.71,2.26s1.71-1,1.71-2.31-0.58-2.27-1.71-2.27S-82.46,98.67-82.46,99.95Z" transform="translate(143.97 -90.41)" fill="#fff"/><path d="M-76.88,96.83h3.57v0.93h-2.44v1.71h2.27v0.93h-2.27V103h-1.13V96.83Z" transform="translate(143.97 -90.41)" fill="#fff"/><path d="M-69.3,103v-2.58l-2-3.6H-70l0.74,1.59c0.21,0.46.37,0.81,0.53,1.23h0c0.16-.39.33-0.78,0.54-1.23l0.74-1.59h1.27l-2.05,3.58V103H-69.3Z" transform="translate(143.97 -90.41)" fill="#fff"/><path d="M-60.34,99.86a2.92,2.92,0,0,1-3,3.25A2.86,2.86,0,0,1-66.14,100a3,3,0,0,1,2.93-3.24A2.86,2.86,0,0,1-60.34,99.86Zm-4.61.09c0,1.26.63,2.26,1.71,2.26s1.71-1,1.71-2.31-0.58-2.27-1.71-2.27S-64.95,98.67-64.95,99.95Z" transform="translate(143.97 -90.41)" fill="#fff"/><path d="M-58.25,96.83v3.6c0,1.21.5,1.77,1.27,1.77s1.3-.56,1.3-1.77v-3.6h1.13v3.53c0,1.91-1,2.75-2.47,2.75s-2.36-.8-2.36-2.74V96.83h1.13Z" transform="translate(143.97 -90.41)" fill="#fff"/><path d="M-53.26,96.91a10.73,10.73,0,0,1,1.71-.13,2.86,2.86,0,0,1,1.91.5,1.56,1.56,0,0,1,.53,1.24,1.65,1.65,0,0,1-1.12,1.55v0a1.57,1.57,0,0,1,.86,1.19,12.33,12.33,0,0,0,.49,1.72h-1.16a8.73,8.73,0,0,1-.41-1.46,1.06,1.06,0,0,0-1.11-1.08h-0.57V103h-1.12v-6.1Zm1.12,2.73h0.67a1.07,1.07,0,0,0,1.24-1,1,1,0,0,0-1.21-1,3.26,3.26,0,0,0-.7.05v2Z" transform="translate(143.97 -90.41)" fill="#fff"/></svg>